# xmcd
# 
# Track frame offsets:
#     150
#     29155
#     59618
#     88625
#     110825
#     138378
#     175800
#     211990
#     240265
#     262643
# 
# Disc length: 4134
# 
# Revision: 2
# Processed by: cddbd v1.5.2PL0 Copyright (c) Steve Scherf et al.
# Submitted via: BonkEnc v1.0
# 
DISCID=8910240a
DTITLE=RANDY BRECKER w/MICHAEL BRECKER - SOME SKUNK FUNK
DYEAR=2005
DGENRE=Jazz
TTITLE0=SOME SKUNK FUNK
TTITLE1=SPONGE
TTITLE2=SHANGHIGH
TTITLE3=WAYNE OUT
TTITLE4=AND THEN SHE WEPT
TTITLE5=STRAP-HANGIN'
TTITLE6=LET IT GO
TTITLE7=FREEFALL
TTITLE8=LEVITATE
TTITLE9=SONG FOR BARRY
EXTD=YEAR: 2005
EXTT0=
EXTT1=
EXTT2=
EXTT3=
EXTT4=
EXTT5=
EXTT6=
EXTT7=
EXTT8=
EXTT9=
PLAYORDER=
